#!OML:ASF C:\ViconDB\ViconDB\414\Spring2016\041811\Spring2016.ASF
:FULLY-SPECIFIED
:DEGREES
186
root 5.91929 17.3001 -32.7164 -182.908 6.01519 -173.874
lowerback 6.50447 0.434115 2.36265
upperback 0.910206 1.11193 4.12461
thorax -2.75152 0.652513 2.83312
lowerneck -17.2145 -5.3566 -12.7649
upperneck 19.0743 -6.89629 14.9886
head 9.9006 -2.33801 6.55533
rclavicle 3.73964e-015 -1.47101e-014
rhumerus -56.1045 -2.02673 -90.219
rradius 98.2749
rwrist 11.3748
rhand -25.3384 -8.76119
rfingers 7.12502
rthumb 1.1847 -38.7376
lclavicle 3.73964e-015 -1.47101e-014
lhumerus -59.8704 -11.3783 99.8009
lradius 75.6836
lwrist -18.2942
lhand -36.4495 12.646
lfingers 7.12502
lthumb -9.54356 42.4098
rfemur -14.7295 -10.0697 31.2538
rtibia 47.5853
rfoot -166.439 16.7946
rtoes -12.5896
lfemur -15.085 8.73685 -5.2022
ltibia 93.8841
lfoot 1.80584 -2.20014
ltoes -5.16563
187
root 5.89118 17.2592 -33.1697 -182.72 6.16992 -173.991
lowerback 6.48421 0.575186 2.41017
upperback 1.03047 1.29865 4.09992
thorax -2.62041 0.746521 2.76483
lowerneck -17.4018 -5.33428 -12.6641
upperneck 19.0302 -6.84964 14.8528
head 9.9031 -2.32237 6.48998
rclavicle -2.06239e-015 6.75868e-015
rhumerus -53.0014 -0.500635 -91.2113
rradius 99.4768
rwrist 12.15
rhand -24.3875 -9.06453
rfingers 7.12502
rthumb 2.10313 -39.0339
lclavicle -2.06239e-015 6.75868e-015
lhumerus -61.9675 -11.3324 100.213
lradius 74.1312
lwrist -15.1447
lhand -36.6701 13.9045
lfingers 7.12502
lthumb -9.75635 43.6585
rfemur -13.3522 -10.8342 30.3549
rtibia 47.9399
rfoot -166.433 18.3756
rtoes -12.0635
lfemur -18.7 8.99271 -5.42877
ltibia 95.4441
lfoot 0.171585 -1.39209
ltoes -4.71854
188
root 5.86722 17.2462 -33.6314 -182.536 6.4486 -174.424
lowerback 6.22055 0.865545 2.19162
upperback 1.2441 1.62764 3.89927
thorax -2.26201 0.90634 2.65687
lowerneck -17.5186 -5.40004 -12.5259
upperneck 18.8155 -6.95095 14.8114
head 9.85925 -2.3662 6.42453
rclavicle 2.1419e-014 -3.97569e-014
rhumerus -49.8675 0.270449 -92.273
rradius 101.026
rwrist 12.9444
rhand -23.8599 -8.70095
rfingers 7.12502
rthumb 2.61263 -38.6647
lclavicle 2.1419e-014 -3.97569e-014
lhumerus -64.1917 -11.854 100.885
lradius 73.6224
lwrist -11.7641
lhand -37.1834 14.4012
lfingers 7.12502
lthumb -10.2516 44.1314
rfemur -11.703 -11.0453 29.1924
rtibia 47.9053
rfoot -166.527 19.5342
rtoes -10.913
lfemur -22.0982 9.36951 -6.16565
ltibia 96.1491
lfoot -0.943795 -0.438514
ltoes -3.88214
189
root 5.84335 17.2546 -34.1039 -182.385 6.69637 -174.411
lowerback 5.96541 1.11501 2.27278
upperback 1.45924 1.94662 3.85633
thorax -1.90345 1.0679 2.54908
lowerneck -17.7527 -5.44358 -12.2817
upperneck 18.7274 -7.03977 14.7497
head 9.87494 -2.38976 6.34066
rclavicle 3.42407e-014 4.21423e-014
rhumerus -47.0081 1.15697 -93.3327
rradius 103.135
rwrist 13.4232
rhand -23.9742 -8.0535
rfingers 7.12502
rthumb 2.50224 -38.0186
lclavicle 3.42407e-014 4.21423e-014
lhumerus -66.6528 -12.4085 101.573
lradius 73.9009
lwrist -10.5334
lhand -37.4843 14.6515
lfingers 7.12502
lthumb -10.5419 44.3672
rfemur -9.62748 -11.2589 28.6233
rtibia 47.2553
rfoot -166.474 20.2509
rtoes -9.88211
lfemur -25.1273 9.62328 -6.41586
ltibia 96.0973
lfoot -2.17457 0.257363
ltoes -5.09749
190
root 5.82989 17.2989 -34.591 -181.802 7.13917 -175.385
lowerback 5.26014 1.56544 1.14756
upperback 1.38515 2.40424 3.60448
thorax -1.63227 1.28076 2.90537
lowerneck -17.7906 -5.56761 -12.1724
upperneck 18.7066 -7.22441 14.683
head 9.89687 -2.47203 6.2675
rclavicle 4.08502e-014 2.26615e-014
rhumerus -44.7983 2.26211 -94.3682
rradius 105.828
rwrist 13.0283
rhand -23.9552 -7.92385
rfingers 7.12502
rthumb 2.52059 -37.8887
lclavicle 4.08502e-014 2.26615e-014
lhumerus -69.3231 -12.7093 102.274
lradius 74.6881
lwrist -10.4819
lhand -37.6303 14.4634
lfingers 7.12502
lthumb -10.6827 44.1718
rfemur -7.86737 -10.9892 26.9887
rtibia 46.2329
rfoot -166.4 20.7353
rtoes -10.27
lfemur -28.2446 10.0346 -8.06216
ltibia 95.1519
lfoot -3.56723 1.31941
ltoes -5.98151
191
root 5.81394 17.3551 -35.0917 -181.929 7.50327 -176.051
lowerback 5.34124 1.9875 0.337498
upperback 1.34362 2.89934 3.43538
thorax -1.77172 1.52111 3.14759
lowerneck -17.5955 -5.73896 -12.2146
upperneck 18.734 -7.4882 14.8089
head 9.91959 -2.58193 6.28525
rclavicle 4.67392e-014 -7.95139e-016
rhumerus -43.1129 3.09013 -95.4223
rradius 108.748
rwrist 11.9726
rhand -23.9119 -7.74542
rfingers 7.12502
rthumb 2.56242 -37.7098
lclavicle 4.67392e-014 -7.95139e-016
lhumerus -72.187 -13.1384 103.06
lradius 75.6699
lwrist -11.0913
lhand -37.5405 13.7194
lfingers 7.12502
lthumb -10.5961 43.4323
rfemur -5.05918 -10.7561 25.5293
rtibia 44.7023
rfoot -166.102 20.9415
rtoes -10.6067
lfemur -30.0582 10.2073 -9.24207
ltibia 93.4516
lfoot -4.95046 2.20844
ltoes -6.11373
